<svg width="192" height="36" viewBox="0 0 192 36" fill="none" xmlns="http://www.w3.org/2000/svg">
<path d="M0.5 33.25C2.7 33.25 3.45 32.4 3.45 30.35V4.65C3.45 2.6 2.7 1.75 0.5 1.75L0.25 -2.38419e-06H19.05C24.2 -2.38419e-06 26.65 2.05 26.65 5.65C26.65 8.55 24.75 11.25 21.95 13.45C25.9 15.3 28.4 18.95 28.4 23C28.4 29.15 23.4 35 15.6 35H0.25L0.5 33.25ZM11.45 28.3C11.45 30.25 12.5 31.25 14.5 31.25C17.9 31.25 20.15 27.9 20.15 22.75C20.15 19.4 18.85 17.3 17.35 16.2C15.45 17.05 13.4 17.75 11.45 18.1V28.3ZM11.45 14.3C15.7 13.4 18.5 10.85 18.5 7.5C18.5 5.05 17 3.75 14.1 3.75H14.4C12.45 3.75 11.45 4.8 11.45 6.8V14.3ZM25.5543 35L25.7543 33.25C27.3043 33.25 28.5543 32.5 29.2043 30.55L37.2543 4.45C37.9043 2.5 38.0543 1.75 36.3043 1.75L36.1043 -2.38419e-06H49.3043L49.1043 1.75C47.3543 1.75 47.5043 2.5 48.0543 4.45L55.8043 30.55C56.3543 32.5 57.6543 33.25 59.1543 33.25L59.3543 35H45.8043L45.5543 33.25C47.2043 33.25 47.9043 32.55 47.9043 31.25C47.9043 26.5 41.7043 23.35 36.1043 23.15L34.0543 30.5C33.5043 32.5 33.5543 33.25 35.7543 33.25L36.0043 35H25.5543ZM37.1543 19.3C39.9543 19.45 42.9043 20.25 45.0543 21.4L40.6543 6.8L37.1543 19.3ZM57.5801 33.25C59.7801 33.25 60.5301 32.4 60.5301 30.35V4.65C60.5301 2.6 59.7801 1.75 57.5801 1.75L57.3301 -2.38419e-06H76.1301C81.2801 -2.38419e-06 83.7301 2.05 83.7301 5.65C83.7301 8.55 81.8301 11.25 79.0301 13.45C82.9801 15.3 85.4801 18.95 85.4801 23C85.4801 29.15 80.4801 35 72.6801 35H57.3301L57.5801 33.25ZM68.5301 28.3C68.5301 30.25 69.5801 31.25 71.5801 31.25C74.9801 31.25 77.2301 27.9 77.2301 22.75C77.2301 19.4 75.9301 17.3 74.4301 16.2C72.5301 17.05 70.4801 17.75 68.5301 18.1V28.3ZM68.5301 14.3C72.7801 13.4 75.5801 10.85 75.5801 7.5C75.5801 5.05 74.0801 3.75 71.1801 3.75H71.4801C69.5301 3.75 68.5301 4.8 68.5301 6.8V14.3ZM82.6344 35L82.8344 33.25C84.3844 33.25 85.6344 32.5 86.2844 30.55L94.3344 4.45C94.9844 2.5 95.1344 1.75 93.3844 1.75L93.1844 -2.38419e-06H106.384L106.184 1.75C104.434 1.75 104.584 2.5 105.134 4.45L112.884 30.55C113.434 32.5 114.734 33.25 116.234 33.25L116.434 35H102.884L102.634 33.25C104.284 33.25 104.984 32.55 104.984 31.25C104.984 26.5 98.7844 23.35 93.1844 23.15L91.1344 30.5C90.5844 32.5 90.6344 33.25 92.8344 33.25L93.0844 35H82.6344ZM94.2344 19.3C97.0344 19.45 99.9844 20.25 102.134 21.4L97.7344 6.8L94.2344 19.3ZM117.834 33.38C117.834 32.64 118.014 32.12 118.374 31.82C118.734 31.52 119.164 31.37 119.664 31.37C120.184 31.37 120.624 31.52 120.984 31.82C121.364 32.12 121.554 32.64 121.554 33.38C121.554 34.1 121.364 34.62 120.984 34.94C120.624 35.26 120.184 35.42 119.664 35.42C119.164 35.42 118.734 35.26 118.374 34.94C118.014 34.62 117.834 34.1 117.834 33.38ZM132.281 25.76C132.281 23.24 131.651 21.77 130.541 21.77C129.131 21.77 128.291 23.39 128.291 26.18V26.54L132.281 25.76ZM123.401 27.5C123.401 22.88 126.401 19.52 130.571 19.52C134.621 19.52 136.901 22.34 136.901 27.14L128.501 28.79C129.011 31.58 130.481 33.02 132.761 33.02C134.741 33.02 136.061 31.82 136.601 29.51H137.201L136.481 35.48C136.151 35 135.191 35 134.801 35C133.721 35 132.221 35.48 130.691 35.48C126.551 35.48 123.401 31.91 123.401 27.5ZM145.806 24.68C145.806 23.09 144.696 22.07 143.016 22.07C141.426 22.07 139.956 23.21 139.536 24.8H138.936L139.866 19.52C139.986 19.67 140.526 20 141.306 20C142.416 20 144.096 19.52 145.476 19.52C148.656 19.52 150.306 21.17 150.306 24.29V32.21C150.306 33.44 150.756 33.95 152.076 33.95L152.226 35H145.806V34.04C144.696 35.03 143.526 35.48 142.086 35.48C139.326 35.48 137.526 33.86 137.526 31.34C137.526 27.86 139.926 25.58 143.616 25.58C144.666 25.58 145.356 25.76 145.806 25.94V24.68ZM142.296 30.8C142.296 32.21 143.016 32.99 144.096 32.99C144.846 32.99 145.416 32.66 145.806 32.18V27.59C145.716 27.56 145.656 27.56 145.566 27.56C143.496 27.56 142.296 28.76 142.296 30.8ZM153.511 22.82C153.511 21.65 152.761 21.11 151.621 21.2L151.501 20.12L158.011 19.52V22.19C158.941 20.69 160.351 19.52 162.181 19.52C162.601 19.52 163.021 19.58 163.261 19.64V24.44H162.661C162.661 23.48 161.881 22.76 160.831 22.76C159.121 22.76 158.011 24.29 158.011 26.63V32.21C158.011 33.44 158.461 33.95 159.781 33.95L159.931 35H151.591L151.741 33.95C153.061 33.95 153.511 33.44 153.511 32.21V22.82ZM165.131 16.19L169.631 15.35V20H173.441L173.681 21.95H169.631V30.77C169.631 32.27 170.051 32.99 170.921 32.99C172.181 32.99 173.051 31.64 173.291 29.33H173.891L173.621 35.48C173.441 35.27 173.051 35 172.391 35C171.581 35 170.351 35.48 169.181 35.48C166.511 35.48 165.131 33.8 165.131 30.86V21.95H162.641L162.341 20H163.361C164.531 20 165.131 19.37 165.131 18.17V16.19ZM175.918 17.3C175.918 16.13 175.168 15.59 174.028 15.68L173.908 14.6L180.418 14V22.73C181.648 21.14 183.688 19.52 186.088 19.52C188.398 19.52 189.838 20.9 189.838 23.9V32.21C189.838 33.44 190.288 33.95 191.608 33.95L191.758 35H183.418L183.568 33.95C184.888 33.95 185.338 33.44 185.338 32.21V24.86C185.338 23.21 184.708 22.7 183.868 22.7C182.608 22.7 181.258 24.08 180.418 25.73V32.21C180.418 33.44 180.868 33.95 182.188 33.95L182.338 35H173.998L174.148 33.95C175.468 33.95 175.918 33.44 175.918 32.21V17.3Z" fill="black"/>
</svg>
