<svg width="10" height="16" viewBox="0 0 10 16" fill="none" xmlns="http://www.w3.org/2000/svg">
<path d="M9.55075 6.97394L2.0504 0.306154C1.79543 0.0811582 1.46727 -0.0268799 1.13778 0.00569806C0.808297 0.038276 0.50434 0.208815 0.292472 0.479969C0.0806039 0.751123 -0.0219065 1.10079 0.00738863 1.45241C0.0366837 1.80402 0.195397 2.12893 0.448772 2.35597L6.79672 7.9989L0.448772 13.6418C0.19442 13.8685 0.0348302 14.1937 0.00505887 14.5459C-0.0247124 14.898 0.0777701 15.2484 0.289994 15.52C0.502217 15.7916 0.806826 15.9623 1.13691 15.9945C1.46699 16.0266 1.79554 15.9177 2.0504 15.6917L9.55075 9.02376C9.69139 8.89841 9.80451 8.74166 9.88214 8.56456C9.95977 8.38747 10 8.19435 10 7.99885C10 7.80335 9.95977 7.61023 9.88214 7.43314C9.80451 7.25604 9.69139 7.09929 9.55075 6.97394Z" fill="black"/>
</svg>
