<svg width="113" height="140" viewBox="0 0 113 140" fill="none" xmlns="http://www.w3.org/2000/svg">
<path d="M1 133C9.8 133 12.8 129.6 12.8 121.4V18.6C12.8 10.4 9.8 7 1 7L7.07805e-08 -9.53674e-06H75.2C95.8 -9.53674e-06 105.6 8.19999 105.6 22.6C105.6 34.2 98 45 86.8 53.8C102.6 61.2 112.6 75.8 112.6 92C112.6 116.6 92.6 140 61.4 140H7.07805e-08L1 133ZM44.8 113.2C44.8 121 49 125 57 125C70.6 125 79.6 111.6 79.6 91C79.6 77.6 74.4 69.2 68.4 64.8C60.8 68.2 52.6 71 44.8 72.4V113.2ZM44.8 57.2C61.8 53.6 73 43.4 73 30C73 20.2 67 15 55.4 15H56.6C48.8 15 44.8 19.2 44.8 27.2V57.2Z" fill="black"/>
</svg>
